<svg width="116" height="20" viewBox="0 0 116 20" fill="none" xmlns="http://www.w3.org/2000/svg">
<path fill-rule="evenodd" clip-rule="evenodd" d="M9.06121 2.2465C9.44718 1.46862 10.5561 1.47838 10.9388 2.2465L13.0748 6.55588L17.8537 7.24915C18.7107 7.37283 19.0542 8.42412 18.4327 9.02626L14.9752 12.3787L15.793 17.1145C15.9402 17.9705 15.0341 18.6084 14.2752 18.2113L10 15.9753L5.72476 18.2113C4.96588 18.6117 4.05983 17.9705 4.20703 17.1145L5.02478 12.3787L1.5673 9.02626C0.94581 8.42412 1.28927 7.37283 2.14628 7.24915L6.92524 6.55588L9.06121 2.2465Z" fill="#FF825B"/>
<path fill-rule="evenodd" clip-rule="evenodd" d="M33.0612 2.2465C33.4472 1.46862 34.5561 1.47838 34.9388 2.2465L37.0748 6.55588L41.8537 7.24915C42.7107 7.37283 43.0542 8.42412 42.4327 9.02626L38.9752 12.3787L39.793 17.1145C39.9402 17.9705 39.0341 18.6084 38.2752 18.2113L34 15.9753L29.7248 18.2113C28.9659 18.6117 28.0598 17.9705 28.207 17.1145L29.0248 12.3787L25.5673 9.02626C24.9458 8.42412 25.2893 7.37283 26.1463 7.24915L30.9252 6.55588L33.0612 2.2465Z" fill="#FF825B"/>
<path fill-rule="evenodd" clip-rule="evenodd" d="M57.0612 2.2465C57.4472 1.46862 58.5561 1.47838 58.9388 2.2465L61.0748 6.55588L65.8537 7.24915C66.7107 7.37283 67.0542 8.42412 66.4327 9.02626L62.9752 12.3787L63.793 17.1145C63.9402 17.9705 63.0341 18.6084 62.2752 18.2113L58 15.9753L53.7248 18.2113C52.9659 18.6117 52.0598 17.9705 52.207 17.1145L53.0248 12.3787L49.5673 9.02626C48.9458 8.42412 49.2893 7.37283 50.1463 7.24915L54.9252 6.55588L57.0612 2.2465Z" fill="#FF825B"/>
<path fill-rule="evenodd" clip-rule="evenodd" d="M81.0612 2.2465C81.4472 1.46862 82.5561 1.47838 82.9388 2.2465L85.0748 6.55588L89.8537 7.24915C90.7107 7.37283 91.0542 8.42412 90.4327 9.02626L86.9752 12.3787L87.793 17.1145C87.9402 17.9705 87.0341 18.6084 86.2752 18.2113L82 15.9753L77.7248 18.2113C76.9659 18.6117 76.0598 17.9705 76.207 17.1145L77.0248 12.3787L73.5673 9.02626C72.9458 8.42412 73.2893 7.37283 74.1463 7.24915L78.9252 6.55588L81.0612 2.2465Z" fill="#FF825B"/>
<path fill-rule="evenodd" clip-rule="evenodd" d="M105.061 2.2465C105.447 1.46862 106.556 1.47838 106.939 2.2465L109.075 6.55588L113.854 7.24915C114.711 7.37283 115.054 8.42412 114.433 9.02626L110.975 12.3787L111.793 17.1145C111.94 17.9705 111.034 18.6084 110.275 18.2113L106 15.9753L101.725 18.2113C100.966 18.6117 100.06 17.9705 100.207 17.1145L101.025 12.3787L97.5673 9.02626C96.9458 8.42412 97.2893 7.37283 98.1463 7.24915L102.925 6.55588L105.061 2.2465Z" fill="#FF825B"/>
</svg>
